Coordinates
version=1
nRows=19
nColumns=24
inDegrees=yes

Units are S.I. units (second, meters, Newtons, ...)
Angles are in degrees.

endheader
time	pelvis_tilt	pelvis_list	pelvis_rotation	pelvis_tx	pelvis_ty	pelvis_tz	hip_flexion_r	hip_adduction_r	hip_rotation_r	knee_angle_r	ankle_angle_r	subtalar_angle_r	mtp_angle_r	hip_flexion_l	hip_adduction_l	hip_rotation_l	knee_angle_l	ankle_angle_l	subtalar_angle_l	mtp_angle_l	lumbar_extension	lumbar_bending	lumbar_rotation
      0.72900000	      2.81425849	      3.15906620	     -0.09836287	     -0.46766867	      1.02168810	      0.26791430	      8.13623308	      0.71957437	     -1.72537268	    -17.20139331	      7.86834122	     -9.65365939	      9.29900305	     14.24259247	      1.48324572	     -7.74928427	    -67.36138691	      1.59965715	    -17.78785028	      2.09285576	     -6.66175954	     -3.23325883	      4.72252090
      0.73316667	      2.79902464	      3.29624682	     -0.24695274	     -0.46271207	      1.02255046	      0.26814818	      7.69097280	      0.57737824	     -1.64979810	    -16.87950064	      7.94512090	     -9.51858515	      9.30288829	     14.75055389	      1.62651348	     -7.84514547	    -66.99929681	      1.80532821	    -17.90727250	      2.04983851	     -6.65408077	     -3.37760716	      4.88923730
      0.73733333	      2.77572714	      3.43218166	     -0.40574089	     -0.45777853	      1.02334310	      0.26837868	      7.26651295	      0.43214276	     -1.58259961	    -16.57797954	      8.10759146	     -9.32195844	      9.31259086	     15.25825591	      1.77261018	     -7.93115130	    -66.57944554	      1.93891799	    -17.98176197	      1.96060049	     -6.65578956	     -3.53083231	      5.27375958
      0.74150000	      2.72987199	      3.54046865	     -0.53084899	     -0.45281629	      1.02406668	      0.26855949	      6.83981742	      0.31655866	     -1.51547732	    -16.22661673	      8.20086744	     -9.21155208	      9.31598194	     15.78331439	      1.89322281	     -7.97760375	    -66.11840201	      2.10855693	    -17.98775213	      1.94953124	     -6.61404726	     -3.63764342	      5.33816817
      0.74566667	      2.74036136	      3.70326028	     -0.73099129	     -0.44786779	      1.02485245	      0.26880209	      6.39682199	      0.13115829	     -1.45947726	    -15.95151127	      8.34756821	     -8.95171382	      9.32984548	     16.20835286	      2.05352988	     -8.11113841	    -65.55177364	      2.27126141	    -17.89171460	      1.88308406	     -6.64870553	     -3.82613244	      5.80472893
      0.74983333	      2.68733198	      3.84006205	     -0.89865189	     -0.44289826	      1.02549419	      0.26898302	      6.00365099	     -0.02615687	     -1.40181290	    -15.63838184	      8.40770609	     -8.77260688	      9.33832851	     16.69878269	      2.19806738	     -8.19497170	    -64.95059150	      2.42981717	    -17.77087346	      1.85300571	     -6.59719425	     -3.96732885	      5.98863958
      0.75400000	      2.66049105	      3.94550665	     -1.07004387	     -0.43792985	      1.02610879	      0.26916939	      5.58114982	     -0.15291344	     -1.36263799	    -15.32532671	      8.56541868	     -8.53872882	      9.35579375	     17.15006883	      2.29760480	     -8.27991430	    -64.31501454	      2.61286386	    -17.56392978	      1.80643032	     -6.58209977	     -4.08156418	      6.35970350
      0.75816667	      2.63179880	      4.06099295	     -1.24545978	     -0.43295534	      1.02668577	      0.26933866	      5.16109802	     -0.29366177	     -1.31701945	    -15.00888488	      8.67186314	     -8.32498292	      9.37390625	     17.58363226	      2.41090541	     -8.36205375	    -63.61358161	      2.77712236	    -17.32901823	      1.77098117	     -6.56214814	     -4.20098081	      6.63661383
      0.76233333	      2.58272071	      4.17915077	     -1.42386700	     -0.42797412	      1.02718509	      0.26949568	      4.76789777	     -0.43976685	     -1.27213393	    -14.69782845	      8.73837744	     -8.13804804	      9.38576589	     18.02231765	      2.52683715	     -8.44122936	    -62.85546318	      2.92098397	    -17.05287717	      1.76034056	     -6.51067384	     -4.32069031	      6.82569956
      0.76650000	      2.55727644	      4.28517592	     -1.60645822	     -0.42299089	      1.02766599	      0.26965544	      4.34953754	     -0.57620650	     -1.23833727	    -14.38744599	      8.84734363	     -7.91050757	      9.40109717	     18.41862823	      2.62268541	     -8.52402699	    -62.05199865	      3.08956095	    -16.70773119	      1.75644733	     -6.49169716	     -4.43074672	      7.09707295
      0.77066667	      2.53301684	      4.37518144	     -1.78641157	     -0.41800773	      1.02809293	      0.26980191	      3.92771252	     -0.69748786	     -1.20749601	    -14.07204375	      8.95899319	     -7.68161078	      9.41791493	     18.79963339	      2.69976410	     -8.59909538	    -61.20588286	      3.25653571	    -16.33761666	      1.76003440	     -6.47491367	     -4.52624561	      7.38188823
      0.77483333	      2.49765039	      4.45702254	     -1.96912763	     -0.41302541	      1.02844300	      0.26993558	      3.52136977	     -0.81170066	     -1.17681725	    -13.76058442	      9.06298049	     -7.46315390	      9.43475685	     19.17744093	      2.76689908	     -8.67008839	    -60.31592428	      3.41284576	    -15.94339544	      1.77107419	     -6.44338663	     -4.60643836	      7.64736759
      0.77900000	      2.48869551	      4.52028197	     -2.15003373	     -0.40804448	      1.02877186	      0.27005798	      3.08025817	     -0.90945508	     -1.15233929	    -13.43791733	      9.21652256	     -7.20809818	      9.46225052	     19.51147075	      2.81325844	     -8.73219006	    -59.38897801	      3.59698189	    -15.51280163	      1.79701517	     -6.45264998	     -4.66436091	      8.00795199
      0.78316667	      2.45467852	      4.59783480	     -2.33249287	     -0.40303959	      1.02904187	      0.27017224	      2.67341522	     -1.02435193	     -1.12957735	    -13.12647775	      9.27735048	     -7.01628860	      9.47841018	     19.84701962	      2.87489783	     -8.79656682	    -58.39159762	      3.70682897	    -15.09313784	      1.81933821	     -6.41446580	     -4.73951514	      8.20634160
      0.78733333	      2.43018179	      4.64406801	     -2.51296114	     -0.39805594	      1.02922132	      0.27029260	      2.25634407	     -1.10546567	     -1.10637459	    -12.81753120	      9.43704444	     -6.77277826	      9.50637971	     20.16525103	      2.89379284	     -8.85997102	    -57.38316901	      3.88464270	    -14.61277634	      1.86332656	     -6.39956884	     -4.77999505	      8.54602910
      0.79150000	      2.41827612	      4.69343981	     -2.68970163	     -0.39306751	      1.02940408	      0.27038457	      1.82470384	     -1.19441457	     -1.08800432	    -12.50408063	      9.54013423	     -6.54812808	      9.53718330	     20.44518016	      2.92609699	     -8.90443875	    -56.30827276	      3.99919863	    -14.15756895	      1.92026200	     -6.40195668	     -4.82181486	      8.83309542
      0.79566667	      2.38134518	      4.73798416	     -2.86512362	     -0.38806491	      1.02949420	      0.27047713	      1.42519604	     -1.27767923	     -1.06979065	    -12.20161755	      9.65163825	     -6.34286653	      9.56538817	     20.73398092	      2.94680416	     -8.95493129	    -55.19406591	      4.10347006	    -13.69953920	      1.97839673	     -6.36681899	     -4.86002967	      9.09050119
      0.79983333	      2.37543771	      4.77218734	     -3.03438695	     -0.38307709	      1.02957852	      0.27054997	      0.99033539	     -1.35390010	     -1.05585510	    -11.89577417	      9.75641688	     -6.12793488	      9.59780776	     20.97106123	      2.96443592	     -8.98462098	    -54.03388667	      4.17968854	    -13.25178153	      2.05093002	     -6.37609071	     -4.88405002	      9.36231203
      0.80400000	      2.32977726	      4.81287534	     -3.19523230	     -0.37808092	      1.02956292	      0.27061068	      0.60831999	     -1.43595458	     -1.04864021	    -11.60918385	      9.82683095	     -5.95465422	      9.61669689	     21.23048491	      2.98947663	     -9.00699856	    -52.82161948	      4.20049445	    -12.83289968	      2.09590916	     -6.32691554	     -4.91900179	      9.53834316
